<svg width="1629" height="600" viewBox="0 0 1629 600" fill="none" xmlns="http://www.w3.org/2000/svg">
<g clip-path="url(#clip0_777_34)">
<rect width="1629" height="600" rx="36" fill="#FFFDE7"/>
<path d="M476 62H8.23217H-8C-42.2417 62 -70 89.7583 -70 124V1023.09C-70 1056.53 -43.4784 1083.94 -10.0551 1085.05L436.895 1099.88C471.923 1101.04 516 1080.61 507.309 1046.66C505.585 1039.93 503.484 1032.2 500.95 1023.34C463.9 893.834 238.933 784.822 238.933 559.423C238.933 404.534 383.468 308.062 489.625 270.303C517.293 260.462 538 235.41 538 206.044V124C538 89.7584 510.242 62 476 62Z" fill="#E8C595"/>
<path d="M1153.23 373C1148.83 373 1145.03 371.4 1141.83 368.2C1138.76 365 1137.23 361.2 1137.23 356.8C1137.23 352.533 1138.76 348.8 1141.83 345.6C1145.03 342.4 1148.83 340.8 1153.23 340.8C1157.63 340.8 1161.36 342.4 1164.43 345.6C1167.63 348.8 1169.23 352.533 1169.23 356.8C1169.23 361.2 1167.63 365 1164.43 368.2C1161.36 371.4 1157.63 373 1153.23 373ZM1237.64 372.4C1227.24 372.4 1217.97 370.2 1209.84 365.8C1201.7 361.267 1195.37 355.067 1190.84 347.2C1186.3 339.2 1184.04 330.133 1184.04 320C1184.04 309.733 1186.3 300.667 1190.84 292.8C1195.37 284.933 1201.64 278.8 1209.64 274.4C1217.64 269.867 1226.84 267.6 1237.24 267.6C1247.24 267.6 1256.37 270.067 1264.64 275C1272.9 279.933 1278.9 287.067 1282.64 296.4L1257.84 305.2C1255.97 301.333 1253.04 298.267 1249.04 296C1245.17 293.6 1240.84 292.4 1236.04 292.4C1231.1 292.4 1226.77 293.6 1223.04 296C1219.3 298.267 1216.37 301.467 1214.24 305.6C1212.1 309.733 1211.04 314.533 1211.04 320C1211.04 325.467 1212.1 330.267 1214.24 334.4C1216.37 338.4 1219.37 341.6 1223.24 344C1227.1 346.4 1231.5 347.6 1236.44 347.6C1241.24 347.6 1245.57 346.333 1249.44 343.8C1253.44 341.267 1256.37 337.933 1258.24 333.8L1283.24 342.6C1279.37 352.067 1273.3 359.4 1265.04 364.6C1256.9 369.8 1247.77 372.4 1237.64 372.4ZM1298.61 370V230H1325.01V370H1298.61ZM1408.23 370L1407.43 349.8V319.4C1407.43 313.4 1406.77 308.267 1405.43 304C1404.23 299.733 1402.23 296.467 1399.43 294.2C1396.77 291.8 1393.1 290.6 1388.43 290.6C1384.17 290.6 1380.3 291.533 1376.83 293.4C1373.37 295.267 1370.43 298.133 1368.03 302L1344.83 294C1346.7 289.733 1349.43 285.6 1353.03 281.6C1356.63 277.467 1361.3 274.133 1367.03 271.6C1372.9 268.933 1380.03 267.6 1388.43 267.6C1398.57 267.6 1406.97 269.533 1413.63 273.4C1420.43 277.267 1425.43 282.733 1428.63 289.8C1431.97 296.733 1433.57 305 1433.43 314.6L1432.83 370H1408.23ZM1380.23 372.4C1368.23 372.4 1358.9 369.733 1352.23 364.4C1345.7 359.067 1342.43 351.533 1342.43 341.8C1342.43 331.133 1345.97 323.133 1353.03 317.8C1360.23 312.333 1370.3 309.6 1383.23 309.6H1408.63V329.2H1392.43C1383.77 329.2 1377.77 330.267 1374.43 332.4C1371.1 334.4 1369.43 337.267 1369.43 341C1369.43 343.933 1370.77 346.267 1373.43 348C1376.1 349.6 1379.83 350.4 1384.63 350.4C1389.03 350.4 1392.9 349.4 1396.23 347.4C1399.7 345.267 1402.43 342.6 1404.43 339.4C1406.43 336.067 1407.43 332.667 1407.43 329.2H1413.83C1413.83 342.8 1411.23 353.4 1406.03 361C1400.97 368.6 1392.37 372.4 1380.23 372.4ZM1471.74 412.4C1468.14 412.4 1464.14 411.667 1459.74 410.2C1455.47 408.867 1451.67 407.267 1448.34 405.4L1458.14 384C1460.41 385.2 1462.47 386.133 1464.34 386.8C1466.34 387.6 1468.07 388 1469.54 388C1472.34 388 1474.81 387.2 1476.94 385.6C1479.07 384.133 1480.81 381.933 1482.14 379L1493.94 351.2L1525.74 270H1554.74L1509.34 378.6C1506.54 385.267 1503.61 391.133 1500.54 396.2C1497.47 401.4 1493.67 405.4 1489.14 408.2C1484.74 411 1478.94 412.4 1471.74 412.4ZM1486.94 370L1441.14 270H1470.14L1503.54 351.2L1512.14 370H1486.94Z" fill="#BA8E54"/>
<path d="M623.582 501.536C616.926 501.536 610.995 500.128 605.79 497.312C600.584 494.411 596.531 490.443 593.63 485.408C590.728 480.288 589.278 474.485 589.278 468C589.278 461.429 590.728 455.627 593.63 450.592C596.531 445.557 600.542 441.632 605.662 438.816C610.782 435.915 616.67 434.464 623.326 434.464C629.726 434.464 635.571 436.043 640.862 439.2C646.152 442.357 649.992 446.923 652.382 452.896L636.51 458.528C635.315 456.053 633.438 454.091 630.878 452.64C628.403 451.104 625.63 450.336 622.558 450.336C619.4 450.336 616.627 451.104 614.238 452.64C611.848 454.091 609.971 456.139 608.606 458.784C607.24 461.429 606.558 464.501 606.558 468C606.558 471.499 607.24 474.571 608.606 477.216C609.971 479.776 611.891 481.824 614.366 483.36C616.84 484.896 619.656 485.664 622.814 485.664C625.886 485.664 628.659 484.853 631.134 483.232C633.694 481.611 635.571 479.477 636.766 476.832L652.766 482.464C650.291 488.523 646.408 493.216 641.118 496.544C635.912 499.872 630.067 501.536 623.582 501.536ZM692.689 501.536C686.203 501.536 680.401 500.128 675.281 497.312C670.246 494.411 666.278 490.443 663.377 485.408C660.561 480.373 659.153 474.571 659.153 468C659.153 461.429 660.561 455.627 663.377 450.592C666.193 445.557 670.118 441.632 675.153 438.816C680.187 435.915 685.947 434.464 692.433 434.464C699.003 434.464 704.806 435.915 709.841 438.816C714.875 441.632 718.801 445.557 721.617 450.592C724.433 455.627 725.84 461.429 725.84 468C725.84 474.571 724.433 480.373 721.617 485.408C718.801 490.443 714.875 494.411 709.841 497.312C704.891 500.128 699.174 501.536 692.689 501.536ZM692.689 485.92C695.846 485.92 698.619 485.152 701.009 483.616C703.398 482.08 705.233 479.989 706.513 477.344C707.878 474.613 708.561 471.499 708.561 468C708.561 464.501 707.878 461.429 706.513 458.784C705.147 456.053 703.227 453.92 700.753 452.384C698.363 450.848 695.59 450.08 692.433 450.08C689.361 450.08 686.587 450.848 684.113 452.384C681.723 453.92 679.846 456.053 678.481 458.784C677.115 461.429 676.433 464.501 676.433 468C676.433 471.499 677.115 474.613 678.481 477.344C679.846 479.989 681.766 482.08 684.241 483.616C686.715 485.152 689.531 485.92 692.689 485.92ZM736.984 500V410.4H753.88V500H736.984ZM798.564 501.536C792.078 501.536 786.276 500.128 781.156 497.312C776.121 494.411 772.153 490.443 769.252 485.408C766.436 480.373 765.028 474.571 765.028 468C765.028 461.429 766.436 455.627 769.252 450.592C772.068 445.557 775.993 441.632 781.028 438.816C786.062 435.915 791.822 434.464 798.308 434.464C804.878 434.464 810.681 435.915 815.716 438.816C820.75 441.632 824.676 445.557 827.492 450.592C830.308 455.627 831.715 461.429 831.715 468C831.715 474.571 830.308 480.373 827.492 485.408C824.676 490.443 820.75 494.411 815.716 497.312C810.766 500.128 805.049 501.536 798.564 501.536ZM798.564 485.92C801.721 485.92 804.494 485.152 806.884 483.616C809.273 482.08 811.108 479.989 812.388 477.344C813.753 474.613 814.436 471.499 814.436 468C814.436 464.501 813.753 461.429 812.388 458.784C811.022 456.053 809.102 453.92 806.628 452.384C804.238 450.848 801.465 450.08 798.308 450.08C795.236 450.08 792.462 450.848 789.988 452.384C787.598 453.92 785.721 456.053 784.356 458.784C782.99 461.429 782.308 464.501 782.308 468C782.308 471.499 782.99 474.613 784.356 477.344C785.721 479.989 787.641 482.08 790.116 483.616C792.59 485.152 795.406 485.92 798.564 485.92ZM854.763 466.336C854.763 459.424 856.085 453.707 858.731 449.184C861.461 444.661 864.917 441.291 869.099 439.072C873.365 436.853 877.803 435.744 882.411 435.744V452.128C878.485 452.128 874.773 452.597 871.275 453.536C867.861 454.475 865.088 456.011 862.955 458.144C860.821 460.277 859.755 463.008 859.755 466.336H854.763ZM842.859 500V436H859.755V500H842.859ZM915.295 501.536C911.199 501.536 907.359 500.939 903.775 499.744C900.191 498.464 897.033 496.672 894.303 494.368C891.572 491.979 889.439 489.077 887.903 485.664L902.367 479.008C903.647 481.056 905.396 482.848 907.615 484.384C909.833 485.835 912.393 486.56 915.295 486.56C918.111 486.56 920.287 486.176 921.823 485.408C923.359 484.555 924.127 483.36 924.127 481.824C924.127 480.288 923.487 479.179 922.207 478.496C921.012 477.728 919.348 477.088 917.215 476.576L911.327 475.04C905.183 473.419 900.319 470.859 896.735 467.36C893.236 463.776 891.487 459.68 891.487 455.072C891.487 448.501 893.577 443.424 897.759 439.84C902.025 436.256 908.041 434.464 915.807 434.464C919.817 434.464 923.529 435.061 926.943 436.256C930.441 437.451 933.428 439.115 935.903 441.248C938.377 443.381 940.084 445.856 941.023 448.672L927.071 455.072C926.473 453.365 925.023 452 922.719 450.976C920.415 449.867 918.111 449.312 915.807 449.312C913.503 449.312 911.711 449.824 910.431 450.848C909.236 451.787 908.639 453.109 908.639 454.816C908.639 455.925 909.236 456.864 910.431 457.632C911.625 458.315 913.332 458.912 915.551 459.424L923.871 461.472C928.052 462.496 931.38 464.16 933.855 466.464C936.415 468.683 938.249 471.2 939.359 474.016C940.553 476.747 941.151 479.435 941.151 482.08C941.151 485.92 939.999 489.333 937.695 492.32C935.476 495.221 932.404 497.483 928.479 499.104C924.639 500.725 920.244 501.536 915.295 501.536ZM1010.28 527.264C1005.42 527.264 1001.11 526.923 997.356 526.24C993.601 525.557 990.444 524.661 987.884 523.552C985.324 522.443 983.233 521.333 981.612 520.224L988.268 506.656C989.462 507.339 991.041 508.107 993.003 508.96C994.966 509.899 997.313 510.667 1000.04 511.264C1002.77 511.947 1005.93 512.288 1009.52 512.288C1012.93 512.288 1015.92 511.605 1018.48 510.24C1021.12 508.96 1023.17 506.912 1024.62 504.096C1026.16 501.365 1026.92 497.867 1026.92 493.6V436H1043.82V493.088C1043.82 500.256 1042.45 506.4 1039.72 511.52C1036.99 516.725 1033.11 520.651 1028.08 523.296C1023.13 525.941 1017.2 527.264 1010.28 527.264ZM1006.96 498.208C1001.07 498.208 995.948 496.928 991.596 494.368C987.329 491.808 984.001 488.224 981.612 483.616C979.222 479.008 978.028 473.547 978.028 467.232C978.028 460.576 979.222 454.816 981.612 449.952C984.001 445.003 987.329 441.205 991.596 438.56C995.948 435.829 1001.07 434.464 1006.96 434.464C1012.08 434.464 1016.51 435.829 1020.27 438.56C1024.02 441.205 1026.92 445.003 1028.97 449.952C1031.02 454.901 1032.04 460.789 1032.04 467.616C1032.04 473.76 1031.02 479.136 1028.97 483.744C1026.92 488.352 1024.02 491.936 1020.27 494.496C1016.51 496.971 1012.08 498.208 1006.96 498.208ZM1011.82 484C1014.72 484 1017.24 483.275 1019.37 481.824C1021.59 480.288 1023.3 478.24 1024.49 475.68C1025.69 473.035 1026.28 470.048 1026.28 466.72C1026.28 463.307 1025.64 460.32 1024.36 457.76C1023.17 455.2 1021.46 453.195 1019.24 451.744C1017.11 450.293 1014.59 449.568 1011.69 449.568C1008.7 449.568 1006.06 450.293 1003.76 451.744C1001.45 453.195 999.66 455.2 998.38 457.76C997.1 460.32 996.417 463.307 996.332 466.72C996.417 470.048 997.1 473.035 998.38 475.68C999.66 478.24 1001.45 480.288 1003.76 481.824C1006.14 483.275 1008.83 484 1011.82 484ZM1087.29 501.536C1080.97 501.536 1075.38 500.128 1070.52 497.312C1065.65 494.411 1061.81 490.443 1059 485.408C1056.27 480.373 1054.9 474.571 1054.9 468C1054.9 461.429 1056.31 455.627 1059.13 450.592C1062.03 445.557 1065.95 441.632 1070.9 438.816C1075.94 435.915 1081.7 434.464 1088.18 434.464C1093.81 434.464 1098.98 435.957 1103.67 438.944C1108.45 441.845 1112.25 446.155 1115.06 451.872C1117.96 457.504 1119.41 464.373 1119.41 472.48H1070.9L1072.44 470.944C1072.44 474.101 1073.21 476.875 1074.74 479.264C1076.36 481.568 1078.41 483.36 1080.89 484.64C1083.45 485.835 1086.18 486.432 1089.08 486.432C1092.58 486.432 1095.44 485.707 1097.65 484.256C1099.87 482.72 1101.58 480.757 1102.77 478.368L1117.88 484.256C1116.09 487.84 1113.74 490.955 1110.84 493.6C1108.02 496.16 1104.65 498.123 1100.73 499.488C1096.8 500.853 1092.32 501.536 1087.29 501.536ZM1073.33 461.472L1071.8 459.936H1102.65L1101.24 461.472C1101.24 458.4 1100.51 455.968 1099.06 454.176C1097.61 452.299 1095.82 450.933 1093.69 450.08C1091.64 449.227 1089.63 448.8 1087.67 448.8C1085.71 448.8 1083.62 449.227 1081.4 450.08C1079.18 450.933 1077.26 452.299 1075.64 454.176C1074.1 455.968 1073.33 458.4 1073.33 461.472ZM1129.23 500V436H1145.11L1146.13 447.776V500H1129.23ZM1171.6 500V467.232H1188.5V500H1171.6ZM1171.6 467.232C1171.6 462.88 1171.09 459.509 1170.07 457.12C1169.13 454.731 1167.76 453.024 1165.97 452C1164.18 450.891 1162.09 450.336 1159.7 450.336C1155.35 450.251 1151.97 451.573 1149.59 454.304C1147.28 457.035 1146.13 461.088 1146.13 466.464H1140.5C1140.5 459.637 1141.48 453.877 1143.44 449.184C1145.49 444.405 1148.31 440.779 1151.89 438.304C1155.56 435.744 1159.83 434.464 1164.69 434.464C1169.72 434.464 1174.03 435.488 1177.62 437.536C1181.2 439.584 1183.93 442.784 1185.81 447.136C1187.69 451.403 1188.58 456.949 1188.5 463.776V467.232H1171.6ZM1230.91 501.536C1224.6 501.536 1219.01 500.128 1214.14 497.312C1209.28 494.411 1205.44 490.443 1202.62 485.408C1199.89 480.373 1198.53 474.571 1198.53 468C1198.53 461.429 1199.94 455.627 1202.75 450.592C1205.65 445.557 1209.58 441.632 1214.53 438.816C1219.56 435.915 1225.32 434.464 1231.81 434.464C1237.44 434.464 1242.6 435.957 1247.3 438.944C1252.07 441.845 1255.87 446.155 1258.69 451.872C1261.59 457.504 1263.04 464.373 1263.04 472.48H1214.53L1216.06 470.944C1216.06 474.101 1216.83 476.875 1218.37 479.264C1219.99 481.568 1222.04 483.36 1224.51 484.64C1227.07 485.835 1229.8 486.432 1232.7 486.432C1236.2 486.432 1239.06 485.707 1241.28 484.256C1243.5 482.72 1245.2 480.757 1246.4 478.368L1261.5 484.256C1259.71 487.84 1257.36 490.955 1254.46 493.6C1251.65 496.16 1248.28 498.123 1244.35 499.488C1240.43 500.853 1235.95 501.536 1230.91 501.536ZM1216.96 461.472L1215.42 459.936H1246.27L1244.86 461.472C1244.86 458.4 1244.14 455.968 1242.69 454.176C1241.24 452.299 1239.44 450.933 1237.31 450.08C1235.26 449.227 1233.26 448.8 1231.3 448.8C1229.33 448.8 1227.24 449.227 1225.02 450.08C1222.8 450.933 1220.88 452.299 1219.26 454.176C1217.73 455.968 1216.96 458.4 1216.96 461.472ZM1284.76 466.336C1284.76 459.424 1286.09 453.707 1288.73 449.184C1291.46 444.661 1294.92 441.291 1299.1 439.072C1303.37 436.853 1307.8 435.744 1312.41 435.744V452.128C1308.49 452.128 1304.77 452.597 1301.27 453.536C1297.86 454.475 1295.09 456.011 1292.95 458.144C1290.82 460.277 1289.75 463.008 1289.75 466.336H1284.76ZM1272.86 500V436H1289.75V500H1272.86ZM1360.01 500L1359.5 487.072V467.616C1359.5 463.776 1359.08 460.491 1358.22 457.76C1357.45 455.029 1356.17 452.939 1354.38 451.488C1352.68 449.952 1350.33 449.184 1347.34 449.184C1344.61 449.184 1342.14 449.781 1339.92 450.976C1337.7 452.171 1335.82 454.005 1334.29 456.48L1319.44 451.36C1320.63 448.629 1322.38 445.984 1324.69 443.424C1326.99 440.779 1329.98 438.645 1333.65 437.024C1337.4 435.317 1341.97 434.464 1347.34 434.464C1353.83 434.464 1359.2 435.701 1363.47 438.176C1367.82 440.651 1371.02 444.149 1373.07 448.672C1375.2 453.109 1376.23 458.4 1376.14 464.544L1375.76 500H1360.01ZM1342.09 501.536C1334.41 501.536 1328.44 499.829 1324.17 496.416C1319.99 493.003 1317.9 488.181 1317.9 481.952C1317.9 475.125 1320.16 470.005 1324.69 466.592C1329.29 463.093 1335.74 461.344 1344.01 461.344H1360.27V473.888H1349.9C1344.36 473.888 1340.52 474.571 1338.38 475.936C1336.25 477.216 1335.18 479.051 1335.18 481.44C1335.18 483.317 1336.04 484.811 1337.74 485.92C1339.45 486.944 1341.84 487.456 1344.91 487.456C1347.73 487.456 1350.2 486.816 1352.33 485.536C1354.55 484.171 1356.3 482.464 1357.58 480.416C1358.86 478.283 1359.5 476.107 1359.5 473.888H1363.6C1363.6 482.592 1361.93 489.376 1358.61 494.24C1355.36 499.104 1349.86 501.536 1342.09 501.536ZM1415.98 501.536C1408.89 501.536 1403.52 499.787 1399.85 496.288C1396.26 492.789 1394.47 487.797 1394.47 481.312V416.032H1411.37V477.6C1411.37 480.331 1411.97 482.421 1413.16 483.872C1414.36 485.237 1416.1 485.92 1418.41 485.92C1419.26 485.92 1420.2 485.749 1421.22 485.408C1422.25 484.981 1423.32 484.384 1424.42 483.616L1430.31 496.288C1428.26 497.824 1425.96 499.061 1423.4 500C1420.93 501.024 1418.45 501.536 1415.98 501.536ZM1384.1 450.336V436H1427.37V450.336H1384.1ZM1470.06 501.536C1463.58 501.536 1457.78 500.128 1452.66 497.312C1447.62 494.411 1443.65 490.443 1440.75 485.408C1437.94 480.373 1436.53 474.571 1436.53 468C1436.53 461.429 1437.94 455.627 1440.75 450.592C1443.57 445.557 1447.49 441.632 1452.53 438.816C1457.56 435.915 1463.32 434.464 1469.81 434.464C1476.38 434.464 1482.18 435.915 1487.22 438.816C1492.25 441.632 1496.18 445.557 1498.99 450.592C1501.81 455.627 1503.22 461.429 1503.22 468C1503.22 474.571 1501.81 480.373 1498.99 485.408C1496.18 490.443 1492.25 494.411 1487.22 497.312C1482.27 500.128 1476.55 501.536 1470.06 501.536ZM1470.06 485.92C1473.22 485.92 1475.99 485.152 1478.38 483.616C1480.77 482.08 1482.61 479.989 1483.89 477.344C1485.25 474.613 1485.94 471.499 1485.94 468C1485.94 464.501 1485.25 461.429 1483.89 458.784C1482.52 456.053 1480.6 453.92 1478.13 452.384C1475.74 450.848 1472.96 450.08 1469.81 450.08C1466.74 450.08 1463.96 450.848 1461.49 452.384C1459.1 453.92 1457.22 456.053 1455.86 458.784C1454.49 461.429 1453.81 464.501 1453.81 468C1453.81 471.499 1454.49 474.613 1455.86 477.344C1457.22 479.989 1459.14 482.08 1461.62 483.616C1464.09 485.152 1466.91 485.92 1470.06 485.92ZM1526.26 466.336C1526.26 459.424 1527.59 453.707 1530.23 449.184C1532.96 444.661 1536.42 441.291 1540.6 439.072C1544.87 436.853 1549.3 435.744 1553.91 435.744V452.128C1549.99 452.128 1546.27 452.597 1542.77 453.536C1539.36 454.475 1536.59 456.011 1534.45 458.144C1532.32 460.277 1531.25 463.008 1531.25 466.336H1526.26ZM1514.36 500V436H1531.25V500H1514.36Z" fill="#BA8E54"/>
</g>
<defs>
<clipPath id="clip0_777_34">
<rect width="1629" height="600" rx="36" fill="white"/>
</clipPath>
</defs>
</svg>
